<svg xmlns="http://www.w3.org/2000/svg" viewBox="0 0 960 640" font-family="Inter, -apple-system, Segoe UI, Roboto, sans-serif">
  <defs>
    <marker id="arw" viewBox="0 0 10 10" refX="8.5" refY="5" markerWidth="7" markerHeight="7" orient="auto-start-reverse">
      <path d="M0,0 L10,5 L0,10 z" fill="#64748b"/>
    </marker>
    <marker id="arwg" viewBox="0 0 10 10" refX="8.5" refY="5" markerWidth="7" markerHeight="7" orient="auto-start-reverse">
      <path d="M0,0 L10,5 L0,10 z" fill="#059669"/>
    </marker>
    <marker id="arwv" viewBox="0 0 10 10" refX="8.5" refY="5" markerWidth="7" markerHeight="7" orient="auto-start-reverse">
      <path d="M0,0 L10,5 L0,10 z" fill="#7C3AED"/>
    </marker>
  </defs>

  <rect x="0" y="0" width="960" height="640" fill="#ffffff"/>

  <!-- Title -->
  <text x="24" y="34" font-size="18" font-weight="700" fill="#0F1035">How data comes in, becomes a graph, and is served</text>
  <text x="24" y="56" font-size="12.5" fill="#64748b">Two ingestion paths → one knowledge graph → served over SQL and MCP</text>

  <!-- ============ LANE A: no lake, full ETL ============ -->
  <rect x="18" y="82" width="604" height="192" rx="14" fill="#FCFCFD" stroke="#CBD5E1" stroke-width="1.3" stroke-dasharray="5 4"/>
  <text x="36" y="106" font-size="12.5" font-weight="700" fill="#3730A3">NO DATA LAKE</text>
  <text x="150" y="106" font-size="12" fill="#64748b">· Strattum runs the ETL (dlt → dbt/DuckDB)</text>

  <!-- Catalog pill (the DuckLake catalog lives in Postgres) -->
  <rect x="298" y="112" width="164" height="30" rx="8" fill="#F1F5F9" stroke="#E2E8F0"/>
  <text x="380" y="131" font-size="11" font-weight="600" fill="#475569" text-anchor="middle">PostgreSQL catalog</text>
  <text x="380" y="157" font-size="9.5" fill="#94a3b8" text-anchor="middle">snapshots · time travel · serializes commits</text>
  <line x1="380" y1="161" x2="440" y2="171" stroke="#CBD5E1" stroke-width="1.2" stroke-dasharray="4 3" fill="none"/>

  <!-- DuckLake boundary: raw / enrichment / clean live in the lake -->
  <rect x="176" y="170" width="436" height="96" rx="12" fill="#FFFDF4" stroke="#F0D583" stroke-width="1.4"/>
  <svg x="188" y="175" width="64.5" height="16" viewBox="0 0 500 124.091" role="img" aria-label="DuckLake"><g><path d="M229.657393,72.1145044c0,5.4994499-1.5510553,10.1011932-7.3323341,10.1011932-5.7816774,0-7.3329321-4.6017432-7.3329321-10.1011932v-23.4081399h-10.4350428v25.6643653c0,10.0119008,8.0379029,15.8483894,17.7679748,15.8483894,9.7296733,0,17.7673769-5.8364885,17.7673769-15.8483894v-25.6643653h-10.4350428v23.4081399Z" fill="#1d1d1b"/><path d="M168.0299498,34.6789006h-16.1746651v54.549632h16.1746651c17.3067641,0,30.324308-5.6445499,30.324308-27.3122869,0-21.6693315-13.0175439-27.2373451-30.324308-27.2373451ZM167.5802992,80.8031649h-4.9652905v-37.6973021h4.9652905c9.9305811,0,19.6379313,2.4826453,19.6379313,18.8103829,0,16.4760267-9.7073503,18.8869192-19.6379313,18.8869192Z" fill="#1d1d1b"/><path d="M266.7011471,82.1553057c-5.7178972,0-9.7806975-4.7388707-9.7806975-13.2407747,0-8.4285567,4.2892201-13.0175439,9.7073503-13.0175439,3.9862641,0,7.5994138,2.7840068,8.4253677,6.6969236h9.9305811c-1.428677-10.0071173-9.8540448-14.7475826-18.3559488-14.7475826-12.1150538,0-20.3171907,8.8782073-20.3171907,21.2180864,0,12.2649373,7.7492974,21.1431446,19.8643511,21.1431446,8.4285567,0,16.7773882-3.686497,19.1850917-14.7491771h-9.9305811c-1.428677,4.815407-5.1151741,6.6969236-8.7283238,6.6969236Z" fill="#1d1d1b"/><polygon points="328.243 48.749 316.58 48.749 301.831 65.002 301.831 34.679 291.451 34.679 291.451 89.229 301.831 89.229 301.831 77.04 306.8 71.699 317.406 89.229 329.069 89.229 313.72 64.249 328.243 48.749" fill="#1d1d1b"/><polygon points="344.111 34.679 333.351 34.679 333.351 89.229 370.669 89.229 370.669 80.5 344.111 80.5 344.111 34.679" fill="#1d1d1b"/><path d="M401.8897122,53.9405286c-2.1812837-3.837975-6.3206203-6.0942005-11.4389834-6.0942005-9.8540448,0-17.8297619,8.4269622-17.8297619,21.1415501,0,12.9410077,8.1989479,21.2196809,17.8297619,21.2196809,4.2158729,0,8.8048601-1.5817496,11.4389834-6.0942005v5.1151741h10.3834206v-40.4797144h-10.3834206v5.1917103ZM392.7850851,82.231842c-5.4181301,0-9.2545107-5.2682466-9.2545107-13.1674275,0-7.9007754,3.8363805-13.2423692,9.2545107-13.2423692,5.7178972,0,9.4809305,5.0402323,9.4809305,13.165833,0,8.3520205-3.7630333,13.2439637-9.4809305,13.2439637Z" fill="#1d1d1b"/><polygon points="458.31 48.749 446.647 48.749 431.901 65.002 431.901 34.679 421.518 34.679 421.518 89.229 431.901 89.229 431.901 77.04 436.867 71.699 447.477 89.229 459.139 89.229 443.79 64.249 458.31 48.749" fill="#1d1d1b"/><path d="M480.3489561,82.1553057c-4.9652905,0-9.630814-3.38673-10.2303481-10.3068844h29.8682794c.3763033-14.2963375-7.372994-24.0020932-19.8611621-24.0020932-11.9651702,0-20.3171907,8.9531491-20.3171907,20.9916666,0,11.6622142,7.5994138,21.3695644,20.6169578,21.3695644,11.059491,0,16.9304608-6.6969236,19.1117445-12.7177769h-10.6863767c-2.1047474,3.5366135-5.2650576,4.6655235-8.501904,4.6655235ZM480.0491891,55.4457419c4.3625674,0,9.1779744,2.4077035,9.4043942,9.2545107h-19.1850917c.8259539-6.8468072,5.8677807-9.2545107,9.7806975-9.2545107Z" fill="#1d1d1b"/></g><path d="M62.0454092,0C27.7794054,0,0,27.779372,0,62.0454692c0,34.265683,27.7794054,62.0453345,62.0454092,62.0453345,34.2660381,0,62.0453968-27.7796514,62.0453968-62.0453345C124.090806,27.779372,96.3114473,0,62.0454092,0Z" fill="#1a1a1a"/><path d="M54.2190773,31.3752562c11.2811647,0,21.1519269,6.0634627,26.3692925,15.0884424h5.6405823c7.7556754,0,14.2423547,6.2045328,14.2423547,14.1009482,0,7.7556691-6.3456092,14.242336-14.2423485,14.242336h-4.089446c-4.653409,10.2939726-14.8063177,17.4853549-26.6511089,17.9085716h-2.8204562c-16.2163776-.8461032-29.0484388-14.242336-29.0484388-30.5997713,0-16.9213982,13.6781644-30.7405238,30.5995689-30.7405269ZM54.2190773,40.6820555c-11.704045,0-21.2926669,9.5889395-21.2926669,21.2929752,0,11.8447788,9.5886219,21.2926482,21.2926669,21.2926482,9.4478818,0,17.4857037-6.2045328,20.3058236-14.6652288l.9871734-3.2433366h10.7168779c2.5383097,0,4.7944729-2.2561632,4.7944729-4.7944667,0-2.5379858-2.1154231-4.7941428-4.7944729-4.7941428h-11.421911l-1.2693137-2.6793799c-3.3840891-7.3327764-10.7168779-12.4090625-19.3186502-12.4090688Z" fill="#2eafff" fill-rule="evenodd"/></svg>
  <text x="262" y="188" font-size="9.5" fill="#B45309">open lakehouse — Parquet on S3/MinIO</text>

  <!-- Chain -->
  <g>
    <rect x="38" y="196" width="118" height="58" rx="10" fill="#F8FAFC" stroke="#CBD5E1" stroke-width="1.3"/>
    <text x="97" y="221" font-size="13" font-weight="700" fill="#0F1035" text-anchor="middle">SOURCE</text>
    <text x="97" y="238" font-size="10" fill="#64748b" text-anchor="middle">SaaS · DB · API</text>

    <rect x="186" y="196" width="118" height="58" rx="10" fill="#EEF2FF" stroke="#C7D2FE" stroke-width="1.3"/>
    <text x="245" y="230" font-size="13.5" font-weight="700" fill="#3730A3" text-anchor="middle">RAW</text>

    <rect x="334" y="196" width="118" height="58" rx="10" fill="#EEF2FF" stroke="#C7D2FE" stroke-width="1.3"/>
    <text x="393" y="221" font-size="12" font-weight="700" fill="#3730A3" text-anchor="middle">ENRICHMENT</text>
    <text x="393" y="238" font-size="10" fill="#6366F1" text-anchor="middle">optional · AI</text>

    <rect x="482" y="196" width="118" height="58" rx="10" fill="#EEF2FF" stroke="#C7D2FE" stroke-width="1.3"/>
    <text x="541" y="230" font-size="13.5" font-weight="700" fill="#3730A3" text-anchor="middle">CLEAN</text>
  </g>
  <!-- chain arrows -->
  <g font-size="9.5" fill="#64748b" text-anchor="middle">
    <line x1="158" y1="225" x2="183" y2="225" stroke="#64748b" stroke-width="1.4" marker-end="url(#arw)"/>
    <text x="171" y="216">dlt</text>
    <line x1="306" y1="225" x2="331" y2="225" stroke="#64748b" stroke-width="1.4" marker-end="url(#arw)"/>
    <text x="319" y="216">python</text>
    <line x1="454" y1="225" x2="479" y2="225" stroke="#64748b" stroke-width="1.4" marker-end="url(#arw)"/>
    <text x="467" y="216">dbt</text>
  </g>

  <!-- ============ LANE B: has lake, federation ============ -->
  <rect x="18" y="294" width="604" height="150" rx="14" fill="#FCFCFD" stroke="#CBD5E1" stroke-width="1.3" stroke-dasharray="5 4"/>
  <text x="36" y="318" font-size="12.5" font-weight="700" fill="#059669">HAS A DATA LAKE / WAREHOUSE</text>
  <text x="256" y="318" font-size="12" fill="#64748b">· federation, zero copy (roadmap)</text>

  <rect x="38" y="350" width="186" height="66" rx="10" fill="#EFF6FF" stroke="#BFDBFE" stroke-width="1.3"/>
  <text x="131" y="376" font-size="11.5" font-weight="700" fill="#2563EB" text-anchor="middle">Snowflake · Databricks</text>
  <text x="131" y="394" font-size="11.5" font-weight="700" fill="#2563EB" text-anchor="middle">BigQuery · Redshift</text>

  <rect x="300" y="346" width="250" height="74" rx="10" fill="#ECFDF5" stroke="#059669" stroke-width="1.7"/>
  <text x="425" y="376" font-size="13.5" font-weight="700" fill="#047857" text-anchor="middle">DuckDB + ADBC</text>
  <text x="425" y="396" font-size="10.5" fill="#059669" text-anchor="middle">reads the warehouse in place — zero copy</text>

  <line x1="298" y1="383" x2="226" y2="383" stroke="#059669" stroke-width="1.5" marker-end="url(#arwg)"/>
  <text x="262" y="375" font-size="9.5" fill="#059669" text-anchor="middle">scans</text>

  <!-- hybrid clean (roadmap): a clean model can JOIN federated data with raw/enrichment —
       in that case the result IS materialized into the lake (the zero-copy exception) -->
  <path d="M516,344 L516,258" stroke="#059669" stroke-width="1.4" stroke-dasharray="4 3" fill="none" marker-end="url(#arwg)"/>
  <text x="356" y="288" font-size="9" fill="#059669" text-anchor="middle">joins federated + raw/enrichment → materialized into CLEAN (roadmap)</text>

  <!-- ============ merge arrows to Memory Worker ============ -->
  <path d="M602,225 C640,225 655,232 686,235" stroke="#64748b" stroke-width="1.6" fill="none" marker-end="url(#arw)"/>
  <text x="645" y="219" font-size="10" font-weight="700" fill="#3730A3" text-anchor="middle">with ETL</text>
  <path d="M552,383 C620,383 640,270 686,250" stroke="#059669" stroke-width="1.6" fill="none" marker-end="url(#arwg)"/>
  <text x="622" y="330" font-size="10" font-weight="700" fill="#059669" text-anchor="middle">no ETL</text>

  <!-- ============ RIGHT STACK: ontology → worker → falkor → mcp ============ -->
  <rect x="700" y="116" width="222" height="50" rx="10" fill="#FFFBEB" stroke="#FDE68A" stroke-width="1.4"/>
  <text x="811" y="138" font-size="12.5" font-weight="700" fill="#B45309" text-anchor="middle">Ontology</text>
  <text x="811" y="155" font-size="10" fill="#D97706" text-anchor="middle">graph_mapping.yaml</text>
  <line x1="811" y1="166" x2="811" y2="202" stroke="#94a3b8" stroke-width="1.3" stroke-dasharray="4 3" marker-end="url(#arw)"/>
  <text x="811" y="187" font-size="9.5" fill="#94a3b8" text-anchor="middle">defines nodes/edges</text>

  <rect x="690" y="206" width="242" height="62" rx="10" fill="#0F1035"/>
  <text x="811" y="232" font-size="13.5" font-weight="700" fill="#ffffff" text-anchor="middle">Memory Worker</text>
  <text x="811" y="250" font-size="10.5" fill="#CBD5E1" text-anchor="middle">DuckDB + Cypher</text>
  <line x1="811" y1="268" x2="811" y2="304" stroke="#64748b" stroke-width="1.5" marker-end="url(#arw)"/>
  <text x="811" y="290" font-size="9.5" fill="#64748b" text-anchor="middle">MERGE</text>

  <rect x="721" y="306" width="180" height="56" rx="10" fill="#ECFDF5" stroke="#059669" stroke-width="1.5"/>
  <svg x="762" y="314" width="98.4" height="26" viewBox="0 0 106 28" role="img" aria-label="FalkorDB"><g clip-path="url(#fdblogo_clip)"><path d="M18.952 11.0185C18.2929 10.356 17.2919 10.0254 15.9454 10.0254C14.5989 10.0254 13.5558 10.3379 12.6184 10.9605C12.6081 10.9662 12.5991 10.973 12.59 10.9799C11.4685 11.7366 12.0309 13.4967 13.3831 13.4967H13.4047C13.4683 13.4967 13.5251 13.4558 13.5512 13.3978C13.6899 13.0854 13.9126 12.8354 14.2171 12.6479C14.5523 12.4434 14.9432 12.3411 15.3931 12.3411C15.8795 12.3411 16.2442 12.4627 16.4828 12.7059C16.7226 12.9513 16.8033 13.2797 16.7215 13.6899L16.5658 14.4819H14.3728C12.9888 14.4819 11.873 14.7671 11.023 15.3386C10.172 15.9102 9.64247 16.7317 9.43112 17.7975C9.23568 18.7883 9.39022 19.5712 9.89927 20.1496C10.4049 20.7291 11.1923 21.0177 12.2559 21.0177C13.2047 21.0177 14.0103 20.7836 14.6739 20.3143C15.1364 19.986 15.4761 19.578 15.692 19.0883H15.7511L15.4443 20.6325C15.425 20.7325 15.5011 20.8257 15.6011 20.8257H16.8783C17.6441 20.8257 18.3009 20.2837 18.4497 19.5326L19.6053 13.6899C19.8258 12.5718 19.6087 11.6821 18.952 11.0196V11.0185ZM16.017 17.2566C15.9215 17.7452 15.6602 18.1407 15.2352 18.4418C14.8091 18.744 14.316 18.8951 13.7512 18.8951C13.2388 18.8951 12.8593 18.7701 12.6138 18.519C12.3695 18.2691 12.2889 17.9248 12.3752 17.4873C12.457 17.0771 12.657 16.7464 12.9763 16.4942C13.2945 16.2442 13.6706 16.1192 14.1069 16.1192H16.2408L16.017 17.2566Z" fill="#191919"></path><path d="M26.6582 18.2208H24.739C24.3936 18.2208 24.1345 18.1152 23.9663 17.9027C23.7959 17.6913 23.7459 17.4118 23.8152 17.0641L25.8173 6.93992C25.8366 6.84106 25.7605 6.74902 25.6594 6.74902H21.1018C21.0245 6.74902 20.9598 6.80356 20.9439 6.87742L20.4928 9.1602C20.4734 9.25905 20.5496 9.35109 20.6496 9.35109H22.2608C22.3619 9.35109 22.4381 9.44426 22.4187 9.54312L20.9314 17.0641C20.7836 17.8095 20.8109 18.4663 21.0132 19.031C21.2154 19.5969 21.5677 20.0377 22.0688 20.3525C22.5699 20.6684 23.1937 20.8252 23.9368 20.8252H26.2082C26.2855 20.8252 26.3502 20.7706 26.3662 20.6956L26.8173 18.4129C26.8366 18.314 26.7604 18.222 26.6604 18.222L26.6582 18.2208Z" fill="#191919"></path><path d="M38.3187 10.2182H35.5132C35.4632 10.2182 35.4155 10.2421 35.3848 10.2819L32.4294 14.2281H31.4874L32.9282 6.93894C32.9475 6.84009 32.8714 6.74805 32.7714 6.74805H30.2136C30.1375 6.74805 30.0716 6.80259 30.0568 6.87645L27.3377 20.6322C27.3184 20.731 27.3945 20.8231 27.4945 20.8231H28.8672C29.6319 20.8231 30.2898 20.2822 30.4386 19.5323L31.0068 16.6586H31.9294L33.2986 20.714C33.3202 20.7787 33.3816 20.8231 33.4497 20.8231H36.3756C36.487 20.8231 36.5643 20.7128 36.5268 20.6094L34.6758 15.4053L38.4448 10.4762C38.5255 10.3705 38.4505 10.2182 38.3175 10.2182H38.3187Z" fill="#191919"></path><path d="M47.2303 12.04C46.9769 11.4037 46.5429 10.9094 45.9282 10.556C45.3123 10.2026 44.5306 10.0254 43.5818 10.0254C42.633 10.0254 41.7978 10.2026 41.0354 10.556C40.2741 10.9094 39.64 11.4037 39.1367 12.04C38.6322 12.6763 38.297 13.4183 38.1288 14.2671L37.6334 16.7737C37.4652 17.6214 37.5072 18.3645 37.7595 19.0008C38.0118 19.6371 38.4492 20.1325 39.0708 20.4859C39.6934 20.8393 40.4718 21.0166 41.4069 21.0166C42.3421 21.0166 43.2068 20.8393 43.9624 20.4859C44.718 20.1325 45.3487 19.6371 45.852 19.0008C46.3554 18.3645 46.6917 17.6225 46.8588 16.7737L47.3542 14.2671C47.5212 13.4183 47.4792 12.6763 47.2281 12.04H47.2303ZM44.4737 14.2682L43.9783 16.7749C43.8692 17.3271 43.6374 17.7543 43.2829 18.0566C42.9284 18.3577 42.4694 18.5099 41.9058 18.5099C41.3422 18.5099 40.9581 18.3588 40.7161 18.0566C40.4741 17.7543 40.4093 17.3271 40.5184 16.7749L41.0138 14.2682C41.1263 13.7035 41.3615 13.2717 41.7205 12.9763C42.0796 12.6809 42.5353 12.5331 43.0875 12.5331C43.6397 12.5331 44.051 12.6809 44.2885 12.9763C44.5249 13.2717 44.5862 13.7035 44.4749 14.2682H44.4737Z" fill="#191919"></path><path d="M57.8626 14.0751C57.8126 14.3285 57.6762 14.5443 57.491 14.6977C57.3035 14.85 57.0649 14.9409 56.807 14.9409H54.8105C54.7094 14.9409 54.6344 14.85 54.6537 14.75L54.7503 14.266C54.8639 13.6876 54.7946 13.2376 54.5458 12.9172C54.2958 12.5956 53.9061 12.4354 53.3822 12.4354C52.83 12.4354 52.3789 12.5956 52.0267 12.9172C51.6744 13.2376 51.4415 13.6876 51.3267 14.266L50.287 19.5303C50.1382 20.2814 49.4791 20.8234 48.7156 20.8234H47.343C47.2418 20.8234 47.1668 20.7302 47.1862 20.6314L49.2189 10.347C49.2337 10.272 49.3008 10.2186 49.3757 10.2186H51.7403C51.8415 10.2186 51.9176 10.3095 51.8994 10.4095L51.5358 12.2423H51.5665C51.8006 11.6912 52.1108 11.2412 52.496 10.8935C53.1357 10.3151 53.9617 10.0254 54.9742 10.0254C56.14 10.0254 56.9763 10.3799 57.4842 11.0855C57.9921 11.7934 58.1182 12.7899 57.8637 14.0751H57.8626Z" fill="#191919"></path><path d="M99.8421 13.8109C99.8103 13.979 99.7466 14.1449 99.6762 14.2926C99.5682 14.521 99.4273 14.738 99.2557 14.9244C98.8683 15.3482 98.3274 15.5937 97.7627 15.6766C97.2684 15.7482 96.765 15.7005 96.2708 15.6527C95.7765 15.605 95.2493 15.5755 94.7368 15.5675C93.7119 15.5528 92.687 15.6221 91.6734 15.7755C90.4474 15.9607 89.4509 16.2686 88.3384 16.8254C88.3203 16.8345 88.3032 16.8436 88.2862 16.8527C87.8521 17.0822 87.4453 17.3526 87.0749 17.6708C85.6114 18.9298 84.9035 20.7807 84.3228 22.5727C83.9274 23.7976 83.54 25.0736 82.6525 26.0394C81.2856 27.5245 79.0096 27.9302 76.9462 27.9302H67.1515C67.0379 27.9302 66.9526 27.8279 66.9754 27.7154L67.1878 26.6212C67.3606 25.7304 68.1423 25.0872 69.0491 25.0872H75.8644C77.6222 25.0872 79.5028 24.8418 80.4766 23.4964C81.0231 22.7408 81.1811 21.8045 81.4038 20.9126C82.1855 17.7935 84.132 14.7233 87.2544 13.4938C86.334 12.9189 85.6659 11.9894 85.4319 10.9679C85.0046 9.08054 86.0159 7.18183 86.1102 5.25358C86.1511 4.43205 85.9579 3.50713 85.2375 3.05148C84.733 2.73219 84.0854 2.72196 83.4786 2.72196C81.2015 2.72423 78.8096 2.72537 76.161 2.72764H74.2225C73.0317 2.72764 72.1375 1.6425 72.3658 0.474412L72.4295 0.14262C72.4465 0.0585361 72.5192 -0.00282259 72.6056 -0.00282259C74.0146 -0.00282259 81.6356 0.00513132 84.3172 -0.00282259C85.8659 -0.00623141 87.6044 0.0653538 88.6532 1.14368C89.0009 1.5016 89.2236 1.91748 89.3531 2.36858C89.3599 2.38676 89.3645 2.40494 89.369 2.42426C89.6702 3.52871 89.4327 4.83088 89.1304 5.98193C88.7407 7.4784 88.3225 9.21803 89.1588 10.6486C89.4906 11.2167 90.011 11.6372 90.6292 11.8599C90.9746 11.9849 91.1223 12.0474 91.4893 12.0439C91.6734 12.0417 91.8552 12.0246 92.037 11.9917C92.3983 11.9292 92.7892 11.8406 93.1153 11.7769C93.271 11.7462 93.4278 11.719 93.5857 11.6962C94.0141 11.636 94.472 11.6247 94.9095 11.711C95.2288 11.7746 95.5413 11.8928 95.8083 12.0814C96.0935 12.2814 96.2605 12.5303 96.4105 12.8393C96.4946 13.012 96.5991 13.187 96.7673 13.2768C97.0707 13.4382 97.5423 13.3302 97.8684 13.3041C98.2081 13.2768 98.5456 13.2245 98.8842 13.1848C99.049 13.1654 99.2137 13.1484 99.3796 13.1416C99.5103 13.1359 99.6523 13.1529 99.7489 13.2484C99.8193 13.3177 99.8523 13.4177 99.8602 13.5166C99.8671 13.612 99.8591 13.7109 99.8409 13.8074L99.8421 13.8109Z" fill="url(#fdblogo_grad)"></path><path d="M11.3618 6.74625H3.83168C3.75555 6.74625 3.68965 6.80079 3.67488 6.87579L1.0035 20.6326C0.984182 20.7315 1.06031 20.8235 1.1603 20.8235H2.72382C3.48967 20.8235 4.14984 20.2793 4.29642 19.5271L5.05204 15.6421C5.06681 15.5671 5.13272 15.5115 5.20885 15.5115H8.00181C8.76993 15.5115 9.42897 14.9672 9.57441 14.2138L9.74712 13.323C9.76644 13.2253 9.69031 13.1321 9.58918 13.1321H5.7304C5.6304 13.1321 5.55314 13.0401 5.57359 12.9412L6.29399 9.25401C6.30876 9.17901 6.37466 9.12447 6.45079 9.12447H9.77439C10.5425 9.12447 11.2016 8.5802 11.347 7.82685L11.5197 6.93601C11.539 6.83716 11.4629 6.74512 11.3618 6.74512V6.74625Z" fill="#191919"></path><path d="M69.8842 8.87661C69.6149 8.20166 69.1536 7.67784 68.5048 7.30514C67.8537 6.93472 67.0424 6.74609 66.0663 6.74609H61.6974C61.5883 6.74609 61.4951 6.82336 61.4747 6.92903L58.7828 20.5518C58.7556 20.6927 58.8624 20.8234 59.0055 20.8234H63.2848C64.2585 20.8234 65.146 20.6336 65.9436 20.2552C66.7436 19.8746 67.414 19.344 67.9514 18.6645C68.4889 17.9827 68.8468 17.1919 69.0252 16.2908L70.0194 11.2594C70.2001 10.3458 70.1558 9.55042 69.8854 8.87661H69.8842ZM67.1367 11.2605L66.1402 16.2919C66.0311 16.8464 65.7641 17.2884 65.3403 17.6225C64.9142 17.9588 64.4063 18.1259 63.8177 18.1259H62.1462L63.862 9.44815H65.5334C66.122 9.44815 66.5652 9.61518 66.8572 9.94925C67.1492 10.2833 67.2447 10.7208 67.1379 11.2616L67.1367 11.2605Z" fill="#191919"></path><path d="M79.9743 7.71988C79.2585 7.07107 78.187 6.74609 76.7632 6.74609H72.434C72.3261 6.74609 72.2318 6.82336 72.2113 6.92903L69.5172 20.5518C69.4899 20.6927 69.5967 20.8234 69.7399 20.8234H74.1555C75.1406 20.8234 76.0269 20.6564 76.8098 20.3223C77.5938 19.9882 78.2427 19.5155 78.7528 18.9031C79.2653 18.2929 79.6016 17.5771 79.7664 16.7544C79.9073 16.0351 79.8664 15.4306 79.6437 14.9409C79.4187 14.4546 79.0733 14.0876 78.6006 13.8421C78.1302 13.599 77.5802 13.4831 76.9496 13.4944L76.9609 13.4387C77.5245 13.4387 78.0711 13.3092 78.6051 13.0513C79.1358 12.7945 79.5903 12.4343 79.9709 11.9707C80.3516 11.5094 80.6016 10.9696 80.7243 10.3526C80.9424 9.24703 80.6913 8.36756 79.9755 7.71874L79.9743 7.71988ZM76.8928 16.6021C76.7746 17.193 76.503 17.6543 76.0792 17.9884C75.6554 18.3247 75.1259 18.4918 74.5009 18.4918H72.7135L73.4646 14.6921H75.252C75.8781 14.6921 76.3394 14.8636 76.6314 15.2045C76.9212 15.5431 77.0098 16.0113 76.8939 16.6021H76.8928ZM77.7438 10.739C77.6416 11.2537 77.4007 11.6616 77.02 11.9627C76.6394 12.2638 76.1667 12.4172 75.6031 12.4172H73.9134L74.5713 9.08114H76.2633C76.8269 9.08114 77.2393 9.22544 77.5041 9.51519C77.7666 9.80494 77.8472 10.2129 77.7427 10.739H77.7438Z" fill="#191919"></path></g><defs><linearGradient id="fdblogo_grad" x1="99.8557" y1="-0.000600253" x2="66.6812" y2="27.4898" gradientUnits="userSpaceOnUse"><stop stop-color="#7466FF"></stop><stop offset="0.5" stop-color="#FF66B3"></stop><stop offset="1" stop-color="#FF804D"></stop></linearGradient><clipPath id="fdblogo_clip"><rect width="106" height="28" fill="white"></rect></clipPath></defs></svg>
  <text x="811" y="352" font-size="10" fill="#059669" text-anchor="middle">entity graph</text>
  <line x1="811" y1="362" x2="811" y2="398" stroke="#64748b" stroke-width="1.5" marker-end="url(#arw)"/>

  <rect x="690" y="400" width="242" height="62" rx="10" fill="#0F1035"/>
  <text x="811" y="426" font-size="12.5" font-weight="700" fill="#ffffff" text-anchor="middle">MCP · run_sql</text>
  <text x="811" y="444" font-size="10" fill="#CBD5E1" text-anchor="middle">served to LLMs &amp; apps</text>

  <!-- run_sql reads parquet directly -->
  <path d="M690,431 C660,431 620,300 602,244" stroke="#CBD5E1" stroke-width="1.3" stroke-dasharray="4 3" fill="none" marker-end="url(#arw)"/>
  <text x="648" y="360" font-size="9" fill="#94a3b8" text-anchor="middle" transform="rotate(-72 648 360)">run_sql reads the Parquet</text>

  <!-- run_sql also reads the federated lake (no-ETL path) — routed under lane B, no crossings -->
  <path d="M690,452 C620,492 520,486 470,424" stroke="#059669" stroke-width="1.3" stroke-dasharray="4 3" fill="none" marker-end="url(#arwg)"/>
  <text x="495" y="470" font-size="9" fill="#059669" text-anchor="middle">run_sql reads the federated lake</text>

  <!-- ============ ACL LANE: per-object permissions (ADR-019) ============ -->
  <rect x="18" y="500" width="604" height="108" rx="14" fill="#FCFCFD" stroke="#DDD6FE" stroke-width="1.3" stroke-dasharray="5 4"/>
  <text x="36" y="524" font-size="12.5" font-weight="700" fill="#7C3AED">ACL — PER-OBJECT PERMISSIONS</text>
  <text x="256" y="524" font-size="11" fill="#64748b">· who can see what, extracted from BOTH paths (ADR-019)</text>

  <rect x="38" y="540" width="180" height="52" rx="10" fill="#F5F3FF" stroke="#C4B5FD" stroke-width="1.4"/>
  <text x="128" y="562" font-size="12" font-weight="700" fill="#6D28D9" text-anchor="middle">ACL extraction</text>
  <text x="128" y="579" font-size="10" fill="#7C3AED" text-anchor="middle">Prefect · per object</text>

  <!-- feeds: both lanes (SOURCE with-ETL + federated warehouse) -->
  <path d="M38,240 L27,240 L27,566 L34,566" stroke="#A78BFA" stroke-width="1.3" stroke-dasharray="4 3" fill="none" marker-end="url(#arwv)"/>
  <path d="M38,404 L31,404 L31,552 L34,552" stroke="#A78BFA" stroke-width="1.3" stroke-dasharray="4 3" fill="none" marker-end="url(#arwv)"/>

  <line x1="218" y1="566" x2="264" y2="566" stroke="#8B5CF6" stroke-width="1.4" marker-end="url(#arwv)"/>
  <text x="241" y="558" font-size="9" fill="#94a3b8" text-anchor="middle">writes grants</text>

  <rect x="268" y="540" width="220" height="52" rx="10" fill="#F1F5F9" stroke="#CBD5E1" stroke-width="1.4"/>
  <text x="378" y="562" font-size="11.5" font-weight="700" fill="#475569" text-anchor="middle">PostgreSQL · auth.access_grant</text>
  <text x="378" y="579" font-size="9.5" fill="#94a3b8" text-anchor="middle">the same Postgres as the catalog</text>

  <!-- apply: a recurring process stamps acl_allow/acl_deny onto CLEAN -->
  <path d="M488,566 L575,566 L575,258" stroke="#8B5CF6" stroke-width="1.5" fill="none" marker-end="url(#arwv)"/>
  <text x="588" y="412" font-size="9" fill="#7C3AED" text-anchor="middle" transform="rotate(-90 588 412)">applies acl_allow / acl_deny to CLEAN — on every sync</text>
</svg>
