<svg xmlns="http://www.w3.org/2000/svg" viewBox="0 0 760 470" font-family="Inter, -apple-system, Segoe UI, Roboto, sans-serif">
<rect x="0" y="0" width="760" height="470" fill="#ffffff"/>
<text x="28" y="34" font-size="16.5" font-weight="700" fill="#0F1035">Primeiro paint — agora conectado</text>
<text x="28" y="55" font-size="12" fill="#64748b">Amostra semeada por arestas: cada contrato (●) liga suas duas partes (usuários) e o produto — os "digital twins", repetidos.</text>
<line x1="110.8" y1="114.6" x2="133.3" y2="73.8" stroke="#CBD5E1" stroke-width="1.4"/>
<line x1="110.8" y1="114.6" x2="135.5" y2="154.2" stroke="#CBD5E1" stroke-width="1.4"/>
<line x1="110.8" y1="114.6" x2="64.3" y2="111.7" stroke="#CBD5E1" stroke-width="1.4"/>
<line x1="302.8" y1="111.2" x2="322.6" y2="70.9" stroke="#CBD5E1" stroke-width="1.4"/>
<line x1="302.8" y1="111.2" x2="326.8" y2="149.2" stroke="#CBD5E1" stroke-width="1.4"/>
<line x1="302.8" y1="111.2" x2="258.6" y2="118.9" stroke="#CBD5E1" stroke-width="1.4"/>
<line x1="471.9" y1="124.1" x2="429.0" y2="120.7" stroke="#CBD5E1" stroke-width="1.4"/>
<line x1="471.9" y1="124.1" x2="498.8" y2="90.6" stroke="#CBD5E1" stroke-width="1.4"/>
<line x1="471.9" y1="124.1" x2="477.6" y2="166.7" stroke="#CBD5E1" stroke-width="1.4"/>
<line x1="622.0" y1="130.3" x2="578.9" y2="149.2" stroke="#CBD5E1" stroke-width="1.4"/>
<line x1="622.0" y1="130.3" x2="624.1" y2="83.3" stroke="#CBD5E1" stroke-width="1.4"/>
<line x1="622.0" y1="130.3" x2="663.5" y2="152.5" stroke="#CBD5E1" stroke-width="1.4"/>
<line x1="95.9" y1="247.1" x2="103.9" y2="194.5" stroke="#CBD5E1" stroke-width="1.4"/>
<line x1="95.9" y1="247.1" x2="131.5" y2="286.7" stroke="#CBD5E1" stroke-width="1.4"/>
<line x1="95.9" y1="247.1" x2="44.2" y2="259.3" stroke="#CBD5E1" stroke-width="1.4"/>
<line x1="272.6" y1="232.0" x2="306.4" y2="190.3" stroke="#CBD5E1" stroke-width="1.4"/>
<line x1="272.6" y1="232.0" x2="273.8" y2="285.7" stroke="#CBD5E1" stroke-width="1.4"/>
<line x1="272.6" y1="232.0" x2="219.1" y2="228.1" stroke="#CBD5E1" stroke-width="1.4"/>
<line x1="466.1" y1="264.4" x2="424.3" y2="298.8" stroke="#CBD5E1" stroke-width="1.4"/>
<line x1="466.1" y1="264.4" x2="466.3" y2="210.3" stroke="#CBD5E1" stroke-width="1.4"/>
<line x1="466.1" y1="264.4" x2="517.7" y2="280.5" stroke="#CBD5E1" stroke-width="1.4"/>
<line x1="100.4" y1="357.8" x2="75.5" y2="309.7" stroke="#CBD5E1" stroke-width="1.4"/>
<line x1="100.4" y1="357.8" x2="153.6" y2="368.5" stroke="#CBD5E1" stroke-width="1.4"/>
<line x1="100.4" y1="357.8" x2="77.3" y2="406.9" stroke="#CBD5E1" stroke-width="1.4"/>
<line x1="301.6" y1="389.7" x2="286.2" y2="340.5" stroke="#CBD5E1" stroke-width="1.4"/>
<line x1="301.6" y1="389.7" x2="352.5" y2="397.8" stroke="#CBD5E1" stroke-width="1.4"/>
<line x1="301.6" y1="389.7" x2="262.1" y2="422.8" stroke="#CBD5E1" stroke-width="1.4"/>
<line x1="474.0" y1="365.5" x2="521.9" y2="352.4" stroke="#CBD5E1" stroke-width="1.4"/>
<line x1="474.0" y1="365.5" x2="476.2" y2="415.0" stroke="#CBD5E1" stroke-width="1.4"/>
<line x1="474.0" y1="365.5" x2="439.5" y2="329.9" stroke="#CBD5E1" stroke-width="1.4"/>
<line x1="669.8" y1="350.0" x2="642.8" y2="298.8" stroke="#CBD5E1" stroke-width="1.4"/>
<line x1="669.8" y1="350.0" x2="726.1" y2="336.8" stroke="#CBD5E1" stroke-width="1.4"/>
<line x1="669.8" y1="350.0" x2="650.3" y2="404.6" stroke="#CBD5E1" stroke-width="1.4"/>
<circle cx="133.3" cy="73.8" r="7" fill="#2563EB"/>
<circle cx="135.5" cy="154.2" r="7" fill="#2563EB"/>
<circle cx="64.3" cy="111.7" r="7" fill="#059669"/>
<circle cx="322.6" cy="70.9" r="7" fill="#2563EB"/>
<circle cx="326.8" cy="149.2" r="7" fill="#2563EB"/>
<circle cx="258.6" cy="118.9" r="7" fill="#059669"/>
<circle cx="429.0" cy="120.7" r="7" fill="#2563EB"/>
<circle cx="498.8" cy="90.6" r="7" fill="#2563EB"/>
<circle cx="477.6" cy="166.7" r="7" fill="#059669"/>
<circle cx="578.9" cy="149.2" r="7" fill="#2563EB"/>
<circle cx="624.1" cy="83.3" r="7" fill="#2563EB"/>
<circle cx="663.5" cy="152.5" r="7" fill="#059669"/>
<circle cx="103.9" cy="194.5" r="7" fill="#2563EB"/>
<circle cx="131.5" cy="286.7" r="7" fill="#2563EB"/>
<circle cx="44.2" cy="259.3" r="7" fill="#059669"/>
<circle cx="306.4" cy="190.3" r="7" fill="#2563EB"/>
<circle cx="273.8" cy="285.7" r="7" fill="#2563EB"/>
<circle cx="219.1" cy="228.1" r="7" fill="#059669"/>
<circle cx="424.3" cy="298.8" r="7" fill="#2563EB"/>
<circle cx="466.3" cy="210.3" r="7" fill="#2563EB"/>
<circle cx="517.7" cy="280.5" r="7" fill="#059669"/>
<circle cx="75.5" cy="309.7" r="7" fill="#2563EB"/>
<circle cx="153.6" cy="368.5" r="7" fill="#2563EB"/>
<circle cx="77.3" cy="406.9" r="7" fill="#059669"/>
<circle cx="286.2" cy="340.5" r="7" fill="#2563EB"/>
<circle cx="352.5" cy="397.8" r="7" fill="#2563EB"/>
<circle cx="262.1" cy="422.8" r="7" fill="#059669"/>
<circle cx="521.9" cy="352.4" r="7" fill="#2563EB"/>
<circle cx="476.2" cy="415.0" r="7" fill="#2563EB"/>
<circle cx="439.5" cy="329.9" r="7" fill="#059669"/>
<circle cx="642.8" cy="298.8" r="7" fill="#2563EB"/>
<circle cx="726.1" cy="336.8" r="7" fill="#2563EB"/>
<circle cx="650.3" cy="404.6" r="7" fill="#059669"/>
<circle cx="110.8" cy="114.6" r="10.5" fill="#D97706" stroke="#ffffff" stroke-width="2"/>
<circle cx="302.8" cy="111.2" r="10.5" fill="#D97706" stroke="#ffffff" stroke-width="2"/>
<circle cx="471.9" cy="124.1" r="10.5" fill="#D97706" stroke="#ffffff" stroke-width="2"/>
<circle cx="622.0" cy="130.3" r="10.5" fill="#D97706" stroke="#ffffff" stroke-width="2"/>
<circle cx="95.9" cy="247.1" r="10.5" fill="#D97706" stroke="#ffffff" stroke-width="2"/>
<circle cx="272.6" cy="232.0" r="10.5" fill="#D97706" stroke="#ffffff" stroke-width="2"/>
<circle cx="466.1" cy="264.4" r="10.5" fill="#D97706" stroke="#ffffff" stroke-width="2"/>
<circle cx="100.4" cy="357.8" r="10.5" fill="#D97706" stroke="#ffffff" stroke-width="2"/>
<circle cx="301.6" cy="389.7" r="10.5" fill="#D97706" stroke="#ffffff" stroke-width="2"/>
<circle cx="474.0" cy="365.5" r="10.5" fill="#D97706" stroke="#ffffff" stroke-width="2"/>
<circle cx="669.8" cy="350.0" r="10.5" fill="#D97706" stroke="#ffffff" stroke-width="2"/>
<circle cx="38" cy="442" r="10.5" fill="#D97706"/>
<text x="57" y="446" font-size="12" fill="#475569">Contrato</text>
<circle cx="154" cy="442" r="7" fill="#2563EB"/>
<text x="169" y="446" font-size="12" fill="#475569">Usuário</text>
<circle cx="258" cy="442" r="7" fill="#059669"/>
<text x="273" y="446" font-size="12" fill="#475569">Produto</text>
</svg>